<svg id="uuid-bbcb1e3d-68e4-4a76-be9e-ac3ae2a76ef7" data-name="レイヤー 1" xmlns="http://www.w3.org/2000/svg" viewBox="0 0 359.5 146.15">
  <path d="M0,146.15s65.27-54.92,168.86-27.85c102.81,26.87,162.42,1.39,162.42,1.39,0,0-76.47,40.55-177.28,14.09C46.21,105.47,0,146.15,0,146.15Z" style="fill: #d6eace; fill-rule: evenodd;"/>
  <path d="M53.05,42.98H249.05c-3.33-1.17-6.67-2.33-10-3.5-2.82,18.73-5.64,37.47-8.46,56.2-.65,4.32,19.16,5.57,20,0,2.82-18.73,5.64-37.47,8.46-56.2,.48-3.2-8.48-3.5-10-3.5H53.05c-1.92,0-10,.16-10,3.5s8.08,3.5,10,3.5h0Z" style="fill: #595757;"/>
  <path d="M40.71,68.32c-1.39,9.24-2.78,18.49-4.18,27.73-.48,3.2,8.48,3.5,10,3.5h48c1.92,0,10-.16,10-3.5s-8.08-3.5-10-3.5H46.53c3.33,1.17,6.67,2.33,10,3.5,1.39-9.24,2.78-18.49,4.18-27.73,.65-4.32-19.16-5.57-20,0h0Z" style="fill: #595757;"/>
  <path d="M113.71,68.32c-1.39,9.24-2.78,18.49-4.18,27.73-.48,3.2,8.48,3.5,10,3.5h49c1.92,0,10-.16,10-3.5s-8.08-3.5-10-3.5h-49c3.33,1.17,6.67,2.33,10,3.5,1.39-9.24,2.78-18.49,4.18-27.73,.65-4.32-19.16-5.57-20,0h0Z" style="fill: #595757;"/>
  <path d="M82.63,22.31c-2.63,17.44-5.25,34.87-7.88,52.31-.65,4.32,19.16,5.57,20,0,2.63-17.44,5.25-34.87,7.88-52.31,.65-4.32-19.16-5.57-20,0h0Z" style="fill: #595757;"/>
  <path d="M155.63,22.31c-2.63,17.44-5.25,34.87-7.88,52.31-.65,4.32,19.16,5.57,20,0,2.63-17.44,5.25-34.87,7.88-52.31,.65-4.32-19.16-5.57-20,0h0Z" style="fill: #595757;"/>
  <path d="M125.87,57.48h49c1.92,0,10-.16,10-3.5s-8.08-3.5-10-3.5h-49c-1.92,0-10,.16-10,3.5s8.08,3.5,10,3.5h0Z" style="fill: #595757;"/>
  <path d="M206.63,22.31c-3.69,24.53-7.39,49.06-11.08,73.59-.65,4.32,19.16,5.57,20,0,3.69-24.53,7.39-49.06,11.08-73.59,.65-4.32-19.16-5.57-20,0h0Z" style="fill: #595757;"/>
  <path d="M270.14,38.88l-7.21,47.9c-.65,4.32,19.16,5.57,20,0l7.21-47.9c.65-4.32-19.16-5.57-20,0h0Z" style="fill: #595757;"/>
  <path d="M308.05,42.98h40c1.92,0,10-.16,10-3.5s-8.08-3.5-10-3.5h-40c-1.92,0-10,.16-10,3.5s8.08,3.5,10,3.5h0Z" style="fill: #595757;"/>
  <path d="M321.06,24.09c-3.57,23.74-7.15,47.48-10.72,71.22,3.33-1.17,6.67-2.33,10-3.5h-20c-1.92,0-10,.16-10,3.5s8.08,3.5,10,3.5h20c2.36,0,9.49-.08,10-3.5,3.57-23.74,7.15-47.48,10.72-71.22,.65-4.32-19.16-5.57-20,0h0Z" style="fill: #595757;"/>
  <g>
    <path d="M275.93,27.41c-3.47,3.26-11.16,.74-17.16-5.63-6.01-6.37-8.06-14.18-4.59-17.44,3.47-3.26,11.16-.74,17.16,5.64,6.01,6.37,8.06,14.18,4.59,17.44Z" style="fill: #6fba2c; fill-rule: evenodd; stroke: #4c4948; stroke-width: 2px;"/>
    <line x1="275.39" y1="26.83" x2="264.5" y2="15.28" style="fill: none; stroke: #4c4948; stroke-width: 2px;"/>
  </g>
  <g>
    <path d="M291.41,24.88c-4.34,.54-8.38-4.36-9.01-10.94-.63-6.58,2.37-12.36,6.72-12.9,4.34-.54,8.38,4.36,9.01,10.94,.64,6.58-2.37,12.36-6.72,12.9Z" style="fill: #6fba2c; fill-rule: evenodd; stroke: #4c4948; stroke-width: 2px;"/>
    <line x1="291.35" y1="24.28" x2="290.2" y2="12.35" style="fill: none; stroke: #4c4948; stroke-width: 2px;"/>
  </g>
  <g>
    <g>
      <path d="M94.25,143.99c.11-.79,.14-1.6,.14-2.66v-9.74c0-.97-.04-1.78-.14-2.63,.85,.04,1.49,.05,2.65,.05h3.94c3.56,0,5.53,1.71,5.53,4.84s-2.05,5.11-5.54,5.11h-2.84v2.3c0,1.06,.05,1.95,.14,2.72h-3.87Zm6.41-8.08c1.26,0,2-.7,2-1.94s-.7-1.89-2-1.89h-2.68v3.83h2.68Z" style="fill: #71ba2b; fill-rule: evenodd;"/>
      <path d="M117.07,143.99c-.11-.58-.32-1.31-.88-2.81-.58-1.57-.79-1.98-1.24-2.38-.38-.34-.83-.49-1.4-.49h-1.84v2.95c0,1.22,.04,1.89,.14,2.72h-3.87c.11-.83,.14-1.37,.14-2.7v-9.69c0-1.12-.04-1.78-.14-2.64,.79,.04,1.46,.05,2.68,.05h4.68c2.92,0,4.61,1.51,4.61,4.1,0,1.28-.36,2.29-1.06,2.95-.45,.41-.83,.61-1.71,.9,.92,.29,1.33,.7,1.91,1.98,.27,.58,.52,1.19,1.33,3.13,.2,.5,.41,.95,.86,1.91h-4.21Zm-2.56-8.75c1.06,0,1.71-.65,1.71-1.67s-.58-1.53-1.69-1.53h-2.83v3.21h2.81Z" style="fill: #71ba2b; fill-rule: evenodd;"/>
      <path d="M134.06,144.12c-.77-.09-1.42-.12-2.97-.12h-5.67c-1.37,0-1.87,.02-2.65,.05,.11-.72,.14-1.39,.14-2.63v-9.83c0-1.12-.04-1.75-.14-2.63,.74,.04,1.24,.05,2.65,.05h5.74c1.22,0,1.84-.04,2.68-.12v3.37c-.83-.09-1.48-.12-2.68-.12h-4.68v2.64h3.89c1.19,0,1.62-.02,2.7-.12v3.33c-.85-.09-1.46-.13-2.7-.13h-3.89v3.03h4.64c1.37,0,2.16-.04,2.93-.13v3.37Z" style="fill: #71ba2b; fill-rule: evenodd;"/>
      <path d="M139.19,139.12c.07,.65,.2,.97,.47,1.33,.43,.54,1.19,.85,2.11,.85,1.39,0,2.21-.61,2.21-1.62,0-.56-.29-1.04-.76-1.26-.38-.18-.83-.31-2.7-.74-1.66-.36-2.23-.58-2.9-1.04-1.13-.79-1.75-2-1.75-3.46,0-2.77,2.23-4.52,5.78-4.52,2.29,0,4.03,.7,5,2.05,.45,.6,.67,1.13,.9,2.16l-3.82,.41c-.22-1.17-.86-1.65-2.23-1.65-1.1,0-1.91,.59-1.91,1.42,0,.5,.27,.88,.85,1.15q.36,.16,2.48,.6c1.37,.29,2.23,.59,2.92,1.03,1.3,.81,1.94,2.02,1.94,3.67,0,1.35-.43,2.5-1.26,3.31-1.04,1.01-2.63,1.53-4.73,1.53-1.53,0-3.04-.32-4.01-.88-.9-.5-1.57-1.28-1.94-2.3-.18-.43-.27-.85-.4-1.67l3.74-.36Z" style="fill: #71ba2b; fill-rule: evenodd;"/>
      <path d="M157.34,141.28c0,1.08,.04,1.87,.14,2.72h-3.98c.11-.85,.14-1.58,.14-2.72v-9.07h-2.12c-1.13,0-1.44,.02-2.72,.13v-3.44c.59,.07,1.58,.12,2.68,.12h7.88c1.26,0,1.98-.04,2.81-.12v3.44c-.81-.09-1.51-.13-2.81-.13h-2.03v9.07Z" style="fill: #71ba2b; fill-rule: evenodd;"/>
      <path d="M177.64,136.43c0,4.75-2.9,7.9-7.27,7.9s-7.25-3.08-7.25-7.85,2.84-7.8,7.27-7.8,7.25,3.03,7.25,7.74Zm-3.74,.04c0-2.92-1.33-4.68-3.51-4.68s-3.55,1.78-3.55,4.68,1.35,4.75,3.55,4.75,3.51-1.8,3.51-4.75Z" style="fill: #71ba2b; fill-rule: evenodd;"/>
    </g>
    <g>
      <path d="M94.25,143.99c.11-.79,.14-1.6,.14-2.66v-9.74c0-.97-.04-1.78-.14-2.63,.85,.04,1.49,.05,2.65,.05h3.94c3.56,0,5.53,1.71,5.53,4.84s-2.05,5.11-5.54,5.11h-2.84v2.3c0,1.06,.05,1.95,.14,2.72h-3.87Zm6.41-8.08c1.26,0,2-.7,2-1.94s-.7-1.89-2-1.89h-2.68v3.83h2.68Z" style="fill: #6fba2c; fill-rule: evenodd;"/>
      <path d="M117.07,143.99c-.11-.58-.32-1.31-.88-2.81-.58-1.57-.79-1.98-1.24-2.38-.38-.34-.83-.49-1.4-.49h-1.84v2.95c0,1.22,.04,1.89,.14,2.72h-3.87c.11-.83,.14-1.37,.14-2.7v-9.69c0-1.12-.04-1.78-.14-2.64,.79,.04,1.46,.05,2.68,.05h4.68c2.92,0,4.61,1.51,4.61,4.1,0,1.28-.36,2.29-1.06,2.95-.45,.41-.83,.61-1.71,.9,.92,.29,1.33,.7,1.91,1.98,.27,.58,.52,1.19,1.33,3.13,.2,.5,.41,.95,.86,1.91h-4.21Zm-2.56-8.75c1.06,0,1.71-.65,1.71-1.67s-.58-1.53-1.69-1.53h-2.83v3.21h2.81Z" style="fill: #6fba2c; fill-rule: evenodd;"/>
      <path d="M134.06,144.12c-.77-.09-1.42-.12-2.97-.12h-5.67c-1.37,0-1.87,.02-2.65,.05,.11-.72,.14-1.39,.14-2.63v-9.83c0-1.12-.04-1.75-.14-2.63,.74,.04,1.24,.05,2.65,.05h5.74c1.22,0,1.84-.04,2.68-.12v3.37c-.83-.09-1.48-.12-2.68-.12h-4.68v2.64h3.89c1.19,0,1.62-.02,2.7-.12v3.33c-.85-.09-1.46-.13-2.7-.13h-3.89v3.03h4.64c1.37,0,2.16-.04,2.93-.13v3.37Z" style="fill: #6fba2c; fill-rule: evenodd;"/>
      <path d="M139.19,139.12c.07,.65,.2,.97,.47,1.33,.43,.54,1.19,.85,2.11,.85,1.39,0,2.21-.61,2.21-1.62,0-.56-.29-1.04-.76-1.26-.38-.18-.83-.31-2.7-.74-1.66-.36-2.23-.58-2.9-1.04-1.13-.79-1.75-2-1.75-3.46,0-2.77,2.23-4.52,5.78-4.52,2.29,0,4.03,.7,5,2.05,.45,.6,.67,1.13,.9,2.16l-3.82,.41c-.22-1.17-.86-1.65-2.23-1.65-1.1,0-1.91,.59-1.91,1.42,0,.5,.27,.88,.85,1.15q.36,.16,2.48,.6c1.37,.29,2.23,.59,2.92,1.03,1.3,.81,1.94,2.02,1.94,3.67,0,1.35-.43,2.5-1.26,3.31-1.04,1.01-2.63,1.53-4.73,1.53-1.53,0-3.04-.32-4.01-.88-.9-.5-1.57-1.28-1.94-2.3-.18-.43-.27-.85-.4-1.67l3.74-.36Z" style="fill: #6fba2c; fill-rule: evenodd;"/>
      <path d="M157.34,141.28c0,1.08,.04,1.87,.14,2.72h-3.98c.11-.85,.14-1.58,.14-2.72v-9.07h-2.12c-1.13,0-1.44,.02-2.72,.13v-3.44c.59,.07,1.58,.12,2.68,.12h7.88c1.26,0,1.98-.04,2.81-.12v3.44c-.81-.09-1.51-.13-2.81-.13h-2.03v9.07Z" style="fill: #6fba2c; fill-rule: evenodd;"/>
      <path d="M177.64,136.43c0,4.75-2.9,7.9-7.27,7.9s-7.25-3.08-7.25-7.85,2.84-7.8,7.27-7.8,7.25,3.03,7.25,7.74Zm-3.74,.04c0-2.92-1.33-4.68-3.51-4.68s-3.55,1.78-3.55,4.68,1.35,4.75,3.55,4.75,3.51-1.8,3.51-4.75Z" style="fill: #6fba2c; fill-rule: evenodd;"/>
    </g>
  </g>
  <path d="M128.39,121.07c-49.68,0-97.96,23.16-97.96,23.16,0,0,42.21-36.81,109.92-36.81,21.88,0,46.94,6.43,67.11,13.6,27.03,9.61,51.14,17,82.81,17.26,40.01,.33,65.5-14.37,69.23-15.59,0,0-23.29,19.07-71.38,20.89-20.9,.79-46.65-2.34-76.94-10.55-28.95-7.85-55.59-11.96-82.78-11.96Z" style="fill: #6fba2c; fill-rule: evenodd;"/>
</svg>
