<svg width="163" height="667" viewBox="0 0 163 667" fill="none" xmlns="http://www.w3.org/2000/svg">
<rect width="163" height="667" fill="white"/>
<path d="M145.434 32.85L147.067 31.194L141.156 25.283L147.067 19.349L145.434 17.716L139.5 23.627L133.589 17.716L131.933 19.372L137.844 25.283L131.933 31.194L133.589 32.85L139.5 26.939L145.434 32.85Z" fill="#0168B7"/>
<path d="M33.05 175.982V177.98H42.842V175.982H33.05ZM33.05 179.834V181.832H42.842V179.834H33.05ZM33.05 183.704V185.702H42.842V183.704H33.05ZM31.574 172.058V186.602H33.77V174.128H42.356V186.566H44.66V172.058H31.574ZM36.686 169.7C36.56 170.636 36.254 171.896 35.966 172.796L37.946 173.156C38.342 172.364 38.864 171.176 39.296 169.97L36.686 169.7ZM50.726 176.54V178.664H60.932V176.54H50.726ZM49.394 170.744V172.958H59.906V179.69H62.21V170.744H49.394ZM49.61 176.54V183.038C49.61 185.63 50.708 186.278 54.092 186.278C54.866 186.278 59.132 186.278 59.942 186.278C63.2 186.278 63.992 185.36 64.37 181.904C63.74 181.778 62.768 181.4 62.192 181.058C61.958 183.686 61.706 184.136 59.888 184.136C58.826 184.136 55.028 184.136 54.128 184.136C52.184 184.136 51.86 183.974 51.86 183.002V176.54H49.61ZM74.414 183.92V185.828H80.624V183.92H74.414ZM73.406 178.952V186.602H75.386V180.86H79.58V186.53H81.668V178.952H73.406ZM72.776 170.564V172.544H81.02V170.564H72.776ZM80.012 170.564V170.87C79.94 174.272 79.832 175.568 79.562 175.874C79.418 176.036 79.238 176.072 78.986 176.072C78.644 176.072 77.906 176.072 77.15 176C77.492 176.54 77.726 177.368 77.78 177.998C78.662 177.998 79.49 177.998 79.976 177.926C80.552 177.854 80.948 177.71 81.326 177.242C81.776 176.666 81.902 175.1 81.992 171.338C82.01 171.086 82.028 170.564 82.028 170.564H80.012ZM75.35 171.374C75.152 173.696 74.738 175.676 72.038 176.846C72.488 177.206 73.064 177.962 73.316 178.466C76.502 176.954 77.204 174.416 77.474 171.374H75.35ZM68.24 169.736C67.826 170.996 67.052 172.724 66.404 173.786L67.844 174.416C68.546 173.408 69.374 171.806 70.112 170.438L68.24 169.736ZM70.31 171.86C69.374 173.804 67.718 176.45 66.386 178.088L67.628 178.79C68.996 177.224 70.76 174.722 72.056 172.652L70.31 171.86ZM65.468 174.002C66.386 174.866 67.484 176.126 67.916 176.99L69.032 175.316C68.564 174.488 67.448 173.354 66.494 172.526L65.468 174.002ZM69.77 176.162C70.454 177.404 71.066 179.042 71.264 180.086L72.794 179.402C72.578 178.358 71.894 176.774 71.192 175.568L69.77 176.162ZM65.45 177.656L65.63 179.546C67.376 179.42 69.68 179.276 71.894 179.114L71.912 177.404C69.536 177.512 67.106 177.602 65.45 177.656ZM70.166 180.644C70.562 181.706 71.03 183.092 71.21 183.992L72.794 183.434C72.596 182.534 72.128 181.184 71.678 180.158L70.166 180.644ZM66.224 180.302C66.08 181.832 65.792 183.434 65.27 184.496C65.72 184.676 66.53 185.054 66.908 185.288C67.43 184.136 67.826 182.336 68.006 180.608L66.224 180.302ZM68.24 178.61V186.638H70.13V178.61H68.24ZM91.928 171.878C93.386 174.218 96.338 176.738 99.218 178.196C99.614 177.53 100.1 176.792 100.658 176.216C97.706 175.082 94.844 172.706 92.99 169.664H90.65C89.408 172.058 86.6 174.938 83.396 176.468C83.864 176.918 84.476 177.728 84.746 178.268C87.77 176.666 90.524 174.182 91.928 171.878ZM93.926 176.306V186.62H96.176V176.306H93.926ZM87.716 176.396V178.574C87.716 180.662 87.392 183.2 84.224 185.09C84.8 185.432 85.646 186.152 86.024 186.62C89.57 184.406 89.93 181.184 89.93 178.628V176.396H87.716Z" fill="#0168B7" fill-opacity="0.7"/>
<path d="M37.19 219.618V221.634H46.082V219.618H37.19ZM36.722 226.062V228.114H46.442V226.062H36.722ZM42.5 220.5V235.62H44.552V220.5H42.5ZM38.45 220.536V226.638C38.45 229.086 38.216 232.434 36.308 234.504C36.794 234.774 37.586 235.386 37.946 235.746C40.16 233.424 40.484 229.626 40.484 226.656V220.536H38.45ZM29.774 219.564V221.526H36.344V219.564H29.774ZM31.79 225.126V227.034H34.274V231.534H31.79V233.442H36.128V225.126H31.79ZM31.862 220.518C31.43 223.254 30.656 225.864 29.378 227.556C29.684 228.186 30.062 229.554 30.152 230.13C32.006 227.898 33.14 224.388 33.824 220.968L31.862 220.518ZM30.872 225.126V234.774H32.654V225.126H30.872ZM49.016 228.24V230.238H59.528V228.24H49.016ZM58.322 228.24V232.758C58.322 234.864 58.88 235.494 60.644 235.494C61.004 235.494 61.886 235.494 62.264 235.494C63.83 235.494 64.388 234.702 64.604 231.714C64.01 231.552 63.002 231.192 62.552 230.796C62.498 233.046 62.426 233.388 62.012 233.388C61.832 233.388 61.202 233.388 61.058 233.388C60.662 233.388 60.608 233.316 60.608 232.722V228.24H58.322ZM54.92 218.7V221.544H57.134V218.7H54.92ZM52.724 221.742C52.49 223.938 51.95 225.18 47.918 225.828C48.332 226.242 48.836 227.052 49.016 227.592C53.768 226.638 54.668 224.802 55.01 221.742H52.724ZM56.954 221.814V224.658C56.954 226.458 57.386 227.052 59.366 227.052C59.762 227.052 60.968 227.052 61.382 227.052C62.822 227.052 63.38 226.566 63.596 224.676C63.038 224.55 62.138 224.226 61.724 223.92C61.67 225 61.58 225.162 61.148 225.162C60.878 225.162 59.924 225.162 59.69 225.162C59.168 225.162 59.096 225.108 59.096 224.622V221.814H56.954ZM48.278 220.266V223.956H50.438V222.192H61.616V223.794H63.902V220.266H48.278ZM53.75 226.26V228.564C53.75 230.364 52.976 232.614 47.63 233.928C48.116 234.414 48.764 235.17 49.07 235.71C54.992 234.18 55.928 231.156 55.928 228.618V226.26H53.75ZM74.414 232.92V234.828H80.624V232.92H74.414ZM73.406 227.952V235.602H75.386V229.86H79.58V235.53H81.668V227.952H73.406ZM72.776 219.564V221.544H81.02V219.564H72.776ZM80.012 219.564V219.87C79.94 223.272 79.832 224.568 79.562 224.874C79.418 225.036 79.238 225.072 78.986 225.072C78.644 225.072 77.906 225.072 77.15 225C77.492 225.54 77.726 226.368 77.78 226.998C78.662 226.998 79.49 226.998 79.976 226.926C80.552 226.854 80.948 226.71 81.326 226.242C81.776 225.666 81.902 224.1 81.992 220.338C82.01 220.086 82.028 219.564 82.028 219.564H80.012ZM75.35 220.374C75.152 222.696 74.738 224.676 72.038 225.846C72.488 226.206 73.064 226.962 73.316 227.466C76.502 225.954 77.204 223.416 77.474 220.374H75.35ZM68.24 218.736C67.826 219.996 67.052 221.724 66.404 222.786L67.844 223.416C68.546 222.408 69.374 220.806 70.112 219.438L68.24 218.736ZM70.31 220.86C69.374 222.804 67.718 225.45 66.386 227.088L67.628 227.79C68.996 226.224 70.76 223.722 72.056 221.652L70.31 220.86ZM65.468 223.002C66.386 223.866 67.484 225.126 67.916 225.99L69.032 224.316C68.564 223.488 67.448 222.354 66.494 221.526L65.468 223.002ZM69.77 225.162C70.454 226.404 71.066 228.042 71.264 229.086L72.794 228.402C72.578 227.358 71.894 225.774 71.192 224.568L69.77 225.162ZM65.45 226.656L65.63 228.546C67.376 228.42 69.68 228.276 71.894 228.114L71.912 226.404C69.536 226.512 67.106 226.602 65.45 226.656ZM70.166 229.644C70.562 230.706 71.03 232.092 71.21 232.992L72.794 232.434C72.596 231.534 72.128 230.184 71.678 229.158L70.166 229.644ZM66.224 229.302C66.08 230.832 65.792 232.434 65.27 233.496C65.72 233.676 66.53 234.054 66.908 234.288C67.43 233.136 67.826 231.336 68.006 229.608L66.224 229.302ZM68.24 227.61V235.638H70.13V227.61H68.24ZM91.928 220.878C93.386 223.218 96.338 225.738 99.218 227.196C99.614 226.53 100.1 225.792 100.658 225.216C97.706 224.082 94.844 221.706 92.99 218.664H90.65C89.408 221.058 86.6 223.938 83.396 225.468C83.864 225.918 84.476 226.728 84.746 227.268C87.77 225.666 90.524 223.182 91.928 220.878ZM93.926 225.306V235.62H96.176V225.306H93.926ZM87.716 225.396V227.574C87.716 229.662 87.392 232.2 84.224 234.09C84.8 234.432 85.646 235.152 86.024 235.62C89.57 233.406 89.93 230.184 89.93 227.628V225.396H87.716Z" fill="#0168B7" fill-opacity="0.7"/>
<path d="M44.174 269.77L41.492 268.852C41.402 269.302 41.222 270.04 41.06 270.508C40.43 272.308 39.62 274.162 38.198 276.034C36.29 278.518 34.04 280.516 30.764 282.082L32.762 283.918C36.254 281.992 38.468 279.67 40.142 277.51C41.636 275.566 42.734 273.19 43.418 271.408C43.58 270.976 43.922 270.184 44.174 269.77ZM34.274 271.516L32.726 273.352C34.994 274.738 37.1 276.358 38.396 277.438C40.304 279.022 41.888 280.498 43.454 282.334L45.308 280.264C43.85 278.716 41.96 277.024 40.034 275.53C38.522 274.342 36.056 272.632 34.274 271.516ZM51.338 269.32L49.628 271.138C50.942 272.038 53.21 274 54.146 275.008L55.982 273.136C54.92 272.038 52.58 270.166 51.338 269.32ZM49.07 281.308L50.6 283.684C53.12 283.252 55.442 282.262 57.278 281.164C60.176 279.418 62.57 276.934 63.92 274.486L62.534 271.966C61.382 274.396 59.042 277.132 55.964 278.968C54.218 279.994 51.896 280.912 49.07 281.308ZM79.022 268.654L77.6 269.23C78.086 269.932 78.644 270.994 79.004 271.732L80.462 271.12C80.12 270.454 79.472 269.302 79.022 268.654ZM81.164 267.844L79.724 268.42C80.228 269.104 80.804 270.148 81.182 270.904L82.604 270.292C82.298 269.662 81.632 268.51 81.164 267.844ZM68.456 277.402C67.826 279.004 66.764 280.93 65.648 282.406L68.168 283.468C69.104 282.118 70.166 280.066 70.814 278.32C71.444 276.646 72.092 274.18 72.344 272.92C72.416 272.506 72.632 271.624 72.776 271.12L70.166 270.562C69.932 272.866 69.248 275.404 68.456 277.402ZM77.33 277.042C78.05 278.986 78.716 281.254 79.202 283.378L81.866 282.514C81.38 280.732 80.426 277.87 79.778 276.232C79.094 274.504 77.87 271.732 77.114 270.346L74.72 271.12C75.494 272.488 76.646 275.152 77.33 277.042ZM84.638 274.666V277.51C85.322 277.456 86.528 277.402 87.536 277.402C89.66 277.402 95.582 277.402 97.22 277.402C97.976 277.402 98.894 277.492 99.326 277.51V274.666C98.84 274.702 98.048 274.792 97.202 274.792C95.6 274.792 89.66 274.792 87.536 274.792C86.6 274.792 85.304 274.72 84.638 274.666Z" fill="#0168B7" fill-opacity="0.7"/>
<path d="M40.934 318.662C41.96 320.192 43.832 322.064 45.542 323.108C45.848 322.514 46.298 321.74 46.694 321.236C44.894 320.354 43.058 318.554 41.834 316.736H39.89C39.008 318.356 37.154 320.408 35.264 321.47C35.624 321.938 36.092 322.712 36.308 323.234C38.198 322.082 39.962 320.21 40.934 318.662ZM36.452 324.386V333.512H38.252V326.114H45.164V324.386H36.452ZM43.796 324.386V331.712C43.796 331.874 43.76 331.928 43.616 331.928C43.49 331.928 43.184 331.928 42.86 331.91C43.076 332.36 43.31 333.08 43.364 333.548C44.102 333.548 44.642 333.53 45.092 333.242C45.542 332.954 45.65 332.504 45.65 331.748V324.386H43.796ZM39.116 324.854V333.404H40.52V324.854H39.116ZM41.42 324.854V333.404H42.842V324.854H41.42ZM37.838 321.542V323.306H44.12V321.542H37.838ZM37.298 328.076V329.786H44.984V328.076H37.298ZM30.332 322.244V323.864H35.354V322.244H30.332ZM30.44 317.276V318.914H35.3V317.276H30.44ZM30.332 324.692V326.33H35.354V324.692H30.332ZM29.522 319.706V321.416H35.948V319.706H29.522ZM31.322 327.194V328.886H33.626V330.938H31.322V332.63H35.39V327.194H31.322ZM30.278 327.194V333.386H32.042V327.194H30.278ZM59.438 320.732C57.566 326.6 53.696 329.93 47.468 331.568C47.9 332.09 48.584 333.134 48.836 333.674C55.28 331.658 59.474 327.878 61.742 321.398L59.438 320.732ZM52.49 320.876L50.33 321.524C52.58 327.752 56.288 331.874 63.038 333.638C63.38 333.008 64.082 331.982 64.604 331.478C58.196 330.038 54.308 326.204 52.49 320.876ZM47.792 319.562V321.686H64.28V319.562H47.792ZM54.866 316.718V320.858H57.098V316.718H54.866Z" fill="#0168B7" fill-opacity="0.7"/>
<path d="M30.116 370.884V374.826H32.132V372.756H43.778V374.826H45.902V370.884H30.116ZM32.726 374.142V376.122H42.212V374.142H32.726ZM43.778 365.61C40.466 366.258 35.048 366.69 30.278 366.852C30.476 367.32 30.728 368.148 30.764 368.688C35.552 368.544 41.168 368.148 45.236 367.356L43.778 365.61ZM31.862 369.03C32.24 369.714 32.654 370.614 32.798 371.208L34.778 370.614C34.616 370.02 34.166 369.156 33.752 368.508L31.862 369.03ZM36.614 368.652C36.956 369.408 37.262 370.416 37.334 371.046L39.35 370.56C39.26 369.912 38.9 368.94 38.522 368.22L36.614 368.652ZM42.338 368.184C42.032 369.12 41.456 370.398 40.97 371.262L42.734 371.784C43.274 371.01 43.994 369.84 44.624 368.724L42.338 368.184ZM41.42 374.142V374.484C39.8 378.318 35.246 379.956 29.702 380.514C30.134 380.964 30.746 381.918 30.962 382.458C36.632 381.648 41.564 379.65 43.706 374.934L42.248 374.07L41.87 374.142H41.42ZM34.85 375.6L32.96 376.374C35.48 379.83 39.494 381.72 44.912 382.422C45.182 381.81 45.776 380.874 46.226 380.388C40.988 379.902 36.866 378.336 34.85 375.6ZM54.866 365.718V368.67H57.044V365.718H54.866ZM48.386 367.608V371.028H50.402V369.066H61.688V371.028H63.776V367.608H48.386ZM53.246 370.92H58.736V371.694H53.246V370.92ZM51.248 369.732V372.882H60.878V369.732H51.248ZM50.024 366.312C50.456 366.87 50.96 367.662 51.158 368.166L53.138 367.536C52.886 367.032 52.4 366.312 51.95 365.808L50.024 366.312ZM60.14 365.736C59.888 366.312 59.366 367.122 58.97 367.68L60.734 368.184C61.202 367.716 61.814 367.032 62.372 366.258L60.14 365.736ZM52.274 376.41H59.888V377.058H52.274V376.41ZM52.274 378.156H59.888V378.84H52.274V378.156ZM52.274 374.646H59.888V375.312H52.274V374.646ZM50.222 373.494V379.992H62.03V373.494H50.222ZM52.976 379.92C51.896 380.496 49.79 380.91 47.9 381.126C48.35 381.486 49.124 382.296 49.502 382.746C51.374 382.332 53.678 381.63 55.046 380.712L52.976 379.92ZM56.954 380.946C58.826 381.486 60.734 382.17 61.814 382.638L64.082 381.486C62.768 381 60.518 380.298 58.628 379.776L56.954 380.946ZM66.926 366.222V371.676C66.926 374.574 66.818 378.732 65.306 381.558C65.864 381.756 66.854 382.278 67.268 382.62C68.852 379.578 69.104 374.808 69.104 371.658V366.222H66.926ZM68.618 366.222V367.86H79.094V368.832H68.618V370.47H81.254V366.222H68.618ZM75.71 377.832V379.002H80.174V377.832H75.71ZM74.738 371.46V372.81H81.776V371.46H74.738ZM79.742 377.832V378.03C78.716 379.938 75.998 380.892 72.866 381.198C73.172 381.558 73.532 382.206 73.676 382.638C77.24 382.116 80.21 380.946 81.524 378.21L80.426 377.778L80.084 377.832H79.742ZM75.764 378.606L74.306 378.984C75.674 380.964 78.176 382.098 81.38 382.512C81.596 382.062 82.046 381.396 82.406 381.054C79.4 380.82 76.916 380.028 75.764 378.606ZM75.764 376.986C75.044 377.958 73.676 378.84 72.29 379.398C72.65 379.668 73.28 380.262 73.568 380.568C74.99 379.848 76.52 378.732 77.402 377.454L75.764 376.986ZM75.71 375.762H79.328V376.374H75.71V375.762ZM75.71 374.304H79.328V374.88H75.71V374.304ZM73.982 373.368V377.31H81.146V373.368H73.982ZM74.81 370.452C74.306 371.55 73.424 372.63 72.524 373.332C72.83 373.746 73.298 374.682 73.46 375.06C74.612 374.088 75.764 372.486 76.448 371.01L74.81 370.452ZM71.714 373.458C70.994 374.628 69.77 375.726 68.618 376.446C68.888 376.896 69.374 377.904 69.5 378.3C70.94 377.31 72.452 375.672 73.37 374.088L71.714 373.458ZM70.202 376.464V382.602H72.074V375.402L71.444 375.204L70.202 376.464ZM71.552 370.614C70.976 371.406 70.022 372.162 69.086 372.666C69.446 372.99 70.04 373.71 70.292 374.052C71.318 373.368 72.488 372.234 73.208 371.172L71.552 370.614ZM86.222 366.366V368.31H100.118V366.366H86.222ZM86.366 380.37V382.296H100.208V380.37H86.366ZM93.62 377.184V379.038H98.696V377.184H93.62ZM87.356 370.002V371.622H92.954V370.002H87.356ZM84.8 366.366V371.928C84.8 374.772 84.692 378.822 83.342 381.594C83.864 381.774 84.764 382.278 85.16 382.584C86.618 379.614 86.834 375.006 86.834 371.928V366.366H84.8ZM89.318 368.562V375.924H91.1V368.562H89.318ZM92.396 375.618V381.594H94.502V375.618H92.396ZM88.382 376.968V381.378H90.398V376.968H88.382ZM89.336 370.902C88.742 372.234 87.59 373.692 86.492 374.43C86.87 374.718 87.392 375.33 87.68 375.708C88.796 374.772 89.912 372.972 90.506 371.298L89.336 370.902ZM93.386 370.002V371.622H99.83V370.002H93.386ZM95.42 368.562V375.924H97.22V368.562H95.42ZM95.348 370.902C94.754 372.162 93.602 373.53 92.504 374.214C92.864 374.52 93.404 375.114 93.692 375.51C94.808 374.61 95.906 372.9 96.518 371.298L95.348 370.902ZM91.028 371.784L90.002 372.54C90.506 372.954 91.532 373.908 91.964 374.412L93.008 373.08C92.684 372.846 91.424 372 91.028 371.784ZM97.328 370.956L96.086 371.334C96.734 373.026 97.922 374.7 99.29 375.564C99.578 375.114 100.118 374.466 100.514 374.124C99.182 373.512 97.958 372.234 97.328 370.956Z" fill="#0168B7" fill-opacity="0.7"/>
<path d="M46.6202 417.832L45.1982 416.5C44.8562 416.59 43.8662 416.662 43.3622 416.662C42.4262 416.662 34.7942 416.662 33.6602 416.662C32.9222 416.662 32.1662 416.572 31.4642 416.464V418.984C32.3102 418.894 32.9222 418.858 33.6602 418.858C34.7942 418.858 41.9582 418.858 43.0562 418.858C42.5882 419.74 41.1842 421.324 39.7262 422.206L41.5982 423.7C43.3802 422.44 45.0902 420.154 45.9362 418.75C46.0982 418.498 46.4402 418.066 46.6202 417.832ZM39.2942 420.244H36.6842C36.7742 420.838 36.7922 421.306 36.7922 421.882C36.7922 424.834 36.3602 426.724 34.0922 428.308C33.4262 428.812 32.7782 429.118 32.1842 429.316L34.2902 431.026C39.1862 428.38 39.2942 424.708 39.2942 420.244ZM62.7338 418.822L60.8798 417.67C60.4838 417.814 59.8718 417.886 59.3138 417.886C58.7558 417.886 54.9758 417.886 54.1838 417.886L53.3558 419.938H59.4218C59.1338 421.27 58.0898 423.43 56.8658 424.834C55.2818 426.616 53.2838 428.182 49.6118 429.298L51.7358 431.188C55.1198 429.856 57.2798 428.2 58.9898 426.112C60.6278 424.114 61.6538 421.72 62.1398 420.1C62.2838 419.65 62.5358 419.164 62.7338 418.822ZM56.8658 415.96L54.2198 415.096C54.0578 415.726 53.6798 416.554 53.4098 416.986C52.5278 418.534 50.9438 420.856 47.7938 422.782L49.8098 424.276C52.4018 422.512 54.5438 419.974 55.7678 417.796C55.9658 417.418 56.4338 416.59 56.8658 415.96ZM69.6278 427.606C69.6278 429.748 70.2218 430.72 74.3078 430.72C76.2518 430.72 78.4118 430.558 79.8878 430.342L79.9778 427.894C78.1958 428.254 76.1798 428.488 74.2898 428.488C72.3278 428.488 72.0038 428.11 72.0038 426.976C72.0038 424.978 72.0038 420.028 72.0038 417.868C72.0038 417.256 72.0758 416.338 72.1658 415.798H69.4838C69.5738 416.338 69.6278 417.256 69.6278 417.868C69.6278 420.046 69.6278 426.13 69.6278 427.606ZM80.9498 419.704L79.2218 418.354C78.8978 418.534 78.4478 418.66 77.9438 418.786C76.3058 419.182 67.8458 420.838 65.3978 421.126L65.8298 423.484C68.1158 422.98 76.4318 421.324 77.5298 421.108C77.0258 422.044 75.8558 423.7 74.6678 424.762L76.6478 425.932C77.9438 424.654 79.5818 422.188 80.3738 420.676C80.5358 420.37 80.7878 419.956 80.9498 419.704ZM97.5458 417.814L96.0878 416.716C95.7098 416.842 95.0078 416.932 94.2158 416.932C93.4238 416.932 88.8158 416.932 87.8618 416.932C87.3398 416.932 86.2238 416.878 85.7378 416.806V419.38C86.1338 419.344 87.1238 419.254 87.8618 419.254C88.6358 419.254 93.2258 419.254 93.9818 419.254C93.5678 420.532 92.4698 422.314 91.2818 423.664C89.5898 425.536 86.8178 427.732 83.9018 428.812L85.7738 430.756C88.5638 429.442 91.2818 427.21 93.2978 424.888C94.8458 423.088 96.1778 420.64 96.9158 418.93C97.0778 418.552 97.4018 418.012 97.5458 417.814ZM93.5318 423.394L91.8398 425.068C93.7658 426.814 95.7278 428.956 97.0598 430.81L99.1118 429.028C97.9418 427.588 95.3858 424.906 93.5318 423.394Z" fill="#0168B7" fill-opacity="0.7"/>
<path d="M33.5555 87H36.2195V75.894H39.9815V73.68H29.7935V75.894H33.5555V87ZM46.8011 87.252C50.3291 87.252 52.7411 84.624 52.7411 80.286C52.7411 75.966 50.3291 73.446 46.8011 73.446C43.2551 73.446 40.8431 75.948 40.8431 80.286C40.8431 84.624 43.2551 87.252 46.8011 87.252ZM46.8011 84.948C44.8031 84.948 43.5611 83.13 43.5611 80.286C43.5611 77.442 44.8031 75.732 46.8011 75.732C48.7811 75.732 50.0411 77.442 50.0411 80.286C50.0411 83.13 48.7811 84.948 46.8011 84.948ZM55.3607 87H58.0247V82.266H59.8067C62.6687 82.266 64.9367 80.916 64.9367 77.874C64.9367 74.706 62.6687 73.68 59.7347 73.68H55.3607V87ZM58.0247 80.16V75.804H59.5367C61.3727 75.804 62.3447 76.308 62.3447 77.874C62.3447 79.386 61.4627 80.16 59.6267 80.16H58.0247Z" fill="#0168B7" fill-opacity="0.7"/>
<path d="M31.0784 136H33.5984V130.672C33.5984 129.124 33.3824 127.45 33.2564 126.028H33.3464L34.6964 128.872L38.5484 136H41.2664V122.68H38.7284V127.99C38.7284 129.502 38.9444 131.284 39.0884 132.67H38.9984L37.6484 129.79L33.7784 122.68H31.0784V136ZM44.5609 136H52.9309V133.768H47.2249V130.222H51.8869V127.972H47.2249V124.894H52.7329V122.68H44.5609V136ZM56.8951 136H60.1531L61.6111 129.412C61.8091 128.386 62.0071 127.342 62.1871 126.334H62.2591C62.4211 127.342 62.6011 128.386 62.8351 129.412L64.3111 136H67.6411L70.1071 122.68H67.5871L66.5071 129.178C66.3271 130.582 66.1111 132.004 65.9311 133.444H65.8411C65.5351 132.004 65.2831 130.564 64.9951 129.178L63.4471 122.68H61.1611L59.6311 129.178C59.3431 130.582 59.0551 132.004 58.7851 133.444H58.7131C58.4971 132.004 58.2991 130.582 58.0831 129.178L57.0391 122.68H54.3211L56.8951 136ZM75.9431 136.252C79.0031 136.252 80.8211 134.398 80.8211 132.22C80.8211 130.312 79.7591 129.268 78.1571 128.602L76.4111 127.882C75.2771 127.432 74.3231 127.072 74.3231 126.118C74.3231 125.254 75.0611 124.732 76.2311 124.732C77.3291 124.732 78.2111 125.128 79.0751 125.83L80.4071 124.156C79.3271 123.058 77.7791 122.446 76.2311 122.446C73.5491 122.446 71.6231 124.12 71.6231 126.298C71.6231 128.224 72.9911 129.322 74.3231 129.862L76.1051 130.618C77.2931 131.122 78.1031 131.446 78.1031 132.436C78.1031 133.354 77.3831 133.948 75.9971 133.948C74.8271 133.948 73.5491 133.372 72.6131 132.49L71.0831 134.326C72.3791 135.568 74.1431 136.252 75.9431 136.252Z" fill="#0168B7" fill-opacity="0.7"/>
</svg>
