<svg viewBox="0 0 373 667" fill="none" preserveAspectRatio="none" xmlns="http://www.w3.org/2000/svg">
<mask id="mask0_193_2170" style="mask-type:alpha" maskUnits="userSpaceOnUse" x="0" y="0" width="373" height="667">
<rect width="373" height="667" fill="#F5F5F5"/>
</mask>
<g mask="url(#mask0_193_2170)">
<path opacity="0.2" d="M147.16 -1.23511H222.537L373.194 667H297.817L147.16 -1.23511Z" fill="url(#paint0_linear_193_2170)"/>
<path opacity="0.2" d="M118.117 -334.118H193.494L344.151 334.118H268.774L118.117 -334.118Z" fill="url(#paint1_linear_193_2170)"/>
<path d="M225.259 -191.075L292.881 -296.942L520.904 90.9436L453.282 196.81L225.259 -191.075Z" fill="#F2F947"/>
<path opacity="0.2" d="M164.353 161.809H239.73L390.387 830.045H315.01L164.353 161.809Z" fill="url(#paint2_linear_193_2170)"/>
<path opacity="0.2" d="M231.182 -30.8796H306.559L457.216 637.356H381.839L231.182 -30.8796Z" fill="url(#paint3_linear_193_2170)"/>
<path opacity="0.2" d="M21.3696 438.491H96.7467L247.404 1106.73H172.027L21.3696 438.491Z" fill="url(#paint4_linear_193_2170)"/>
<path opacity="0.2" d="M-47.7905 303.238H27.5866L178.244 971.473H102.867L-47.7905 303.238Z" fill="url(#paint5_linear_193_2170)"/>
<path d="M403.386 105.608L448.103 313.019L358.866 1116.75L314.148 909.342L403.386 105.608Z" fill="#0168B7"/>
</g>
<defs>
<linearGradient id="paint0_linear_193_2170" x1="260.177" y1="-1.23511" x2="260.177" y2="667" gradientUnits="userSpaceOnUse">
<stop stop-color="#0168B7" stop-opacity="0"/>
<stop offset="1" stop-color="#0168B7"/>
</linearGradient>
<linearGradient id="paint1_linear_193_2170" x1="231.134" y1="-334.118" x2="231.134" y2="334.118" gradientUnits="userSpaceOnUse">
<stop stop-color="#0168B7" stop-opacity="0"/>
<stop offset="1" stop-color="#0168B7"/>
</linearGradient>
<linearGradient id="paint2_linear_193_2170" x1="277.37" y1="161.809" x2="277.37" y2="830.045" gradientUnits="userSpaceOnUse">
<stop stop-color="#0168B7" stop-opacity="0"/>
<stop offset="1" stop-color="#0168B7"/>
</linearGradient>
<linearGradient id="paint3_linear_193_2170" x1="344.199" y1="-30.8796" x2="344.199" y2="637.356" gradientUnits="userSpaceOnUse">
<stop stop-color="#0168B7" stop-opacity="0"/>
<stop offset="1" stop-color="#0168B7"/>
</linearGradient>
<linearGradient id="paint4_linear_193_2170" x1="134.387" y1="438.491" x2="134.387" y2="1106.73" gradientUnits="userSpaceOnUse">
<stop stop-color="#0168B7" stop-opacity="0"/>
<stop offset="1" stop-color="#0168B7"/>
</linearGradient>
<linearGradient id="paint5_linear_193_2170" x1="65.2265" y1="303.238" x2="65.2265" y2="971.473" gradientUnits="userSpaceOnUse">
<stop stop-color="#0168B7" stop-opacity="0"/>
<stop offset="1" stop-color="#0168B7"/>
</linearGradient>
</defs>
</svg>
